<?xml version="1.0" encoding="iso-8859-1"?>
<!DOCTYPE svg PUBLIC "-//W3C//DTD SVG 1.0//EN" "http://www.w3.org/TR/2001/REC-SVG-20010904/DTD/svg10.dtd">
<!-- Creator: CorelDRAW -->
<svg xmlns="http://www.w3.org/2000/svg" xmlns:odm="http://product.corel.com/CGS/11/cddns/" xml:space="preserve" width="800px" height="373px" style="shape-rendering:geometricPrecision; text-rendering:geometricPrecision; image-rendering:optimizeQuality; fill-rule:evenodd"
     viewBox="0 0 800 374">
 <defs>
  <style type="text/css">
   <![CDATA[
    .fil0 {fill:#FAFAFA}
    .fil2 {fill:#FAFAFA}
    .fil1 {fill:#FAFAFA}
   ]]>
  </style>
 </defs>
 <g id="Ebene 1">
  <path class="fil0" d="M293 207l-117 0 0 -114 117 0 0 114z"/>
  <g>
   <rect class="fil1" x="50" y="93" width="117" height="114"/>
   <path class="fil1" d="M176 93l60 -60 0 114 -60 60 0 -114z"/>
  </g>
  <path class="fil0" d="M339 260l0 -29 10 0c4,0 7,1 9,4 3,3 4,6 4,10 0,4 -1,8 -4,11 -2,2 -5,4 -8,4l-11 0zm4 -3l6 0c3,0 5,-1 7,-3 1,-3 2,-5 2,-9 0,-3 -1,-5 -2,-8 -2,-2 -4,-3 -7,-3l-6 0 0 23zm40 3l-3 0 0 -4c-1,3 -3,4 -6,4 -3,0 -4,0 -5,-2 -2,-1 -2,-3 -2,-6l0 -14 3 0 0 14c0,2 0,4 1,4 1,1 2,2 3,2 1,0 2,-1 3,-1 1,-1 2,-2 2,-3 1,-1 1,-2 1,-4l0 -12 3 0 0 22zm23 0l-3 0c0,-1 0,-2 0,-4 -2,3 -4,4 -8,4 -2,0 -4,0 -5,-2 -1,-1 -2,-2 -2,-4 0,-2 1,-4 3,-5 1,-2 5,-2 9,-2 0,0 1,0 3,0 0,-2 0,-3 -1,-4 0,-1 -1,-1 -1,-2 -1,0 -2,-1 -4,-1 -3,0 -5,2 -5,4l-3 0c0,-4 3,-6 9,-6 3,0 5,1 6,2 1,1 2,3 2,7l0 9c0,1 0,3 0,4zm-3 -11c-2,0 -3,0 -3,0 -3,0 -5,0 -6,1 -2,1 -3,2 -3,4 0,1 1,2 2,3 0,0 1,1 3,1 2,0 4,-1 5,-2 1,-2 2,-4 2,-5 0,-1 0,-1 0,-2zm13 11l-4 0 0 -29 4 0 0 29zm20 -7l3 1c-1,2 -2,3 -3,5 -2,1 -4,1 -6,1 -3,0 -5,-1 -7,-3 -2,-2 -3,-4 -3,-8 0,-3 1,-6 3,-8 2,-2 4,-3 7,-3 3,0 5,1 7,3 1,2 2,5 2,8l-15 0c0,4 1,6 2,7 1,1 3,2 4,2 3,0 5,-2 6,-5zm0 -6c0,-1 0,-2 -1,-3 0,-1 -1,-2 -2,-3 0,0 -1,-1 -3,-1 -1,0 -3,1 -4,2 -1,1 -2,3 -2,5l12 0zm40 13l-4 0 0 -14 -13 0 0 14 -4 0 0 -29 4 0 0 12 13 0 0 -12 4 0 0 29zm14 0c-3,0 -5,-1 -7,-3 -2,-2 -2,-5 -2,-8 0,-3 1,-6 2,-8 2,-2 4,-3 7,-3 3,0 5,1 7,3 2,2 3,5 3,8 0,3 -1,6 -3,8 -2,2 -4,3 -7,3zm0 -2c2,0 3,-1 4,-2 1,-2 2,-4 2,-7 0,-3 -1,-5 -2,-6 -1,-2 -2,-2 -4,-2 -2,0 -3,0 -4,2 -1,1 -2,3 -2,6 0,3 1,5 2,7 1,1 2,2 4,2zm27 -6l3 1c-1,2 -2,4 -3,5 -1,2 -3,2 -5,2 -3,0 -5,-1 -7,-3 -1,-2 -2,-5 -2,-8 0,-3 1,-6 2,-8 2,-2 4,-3 7,-3 2,0 4,1 5,2 2,1 2,3 3,5l-3 1c-1,-4 -2,-5 -5,-5 -2,0 -3,0 -4,2 -1,1 -2,4 -2,6 0,3 1,5 2,6 1,2 2,3 4,3 2,0 4,-2 5,-6zm24 8l-3 0 0 -13c0,-2 -1,-3 -1,-4 0,0 0,-1 -1,-2 -1,0 -2,0 -3,0 -1,0 -3,0 -4,2 -1,1 -1,3 -1,5l0 12 -4 0 0 -29 4 0 0 11c1,-3 3,-4 6,-4 1,0 2,0 3,1 1,0 2,1 2,2 1,0 1,1 2,2 0,1 0,2 0,4l0 13zm3 -6l4 0c0,2 2,4 6,4 2,0 3,-1 4,-1 1,-1 1,-2 1,-3 0,-2 -1,-3 -4,-3l-4 -1c-2,0 -3,-1 -4,-2 -1,-1 -2,-2 -2,-4 0,-2 1,-3 2,-4 2,-2 4,-2 6,-2 5,0 7,2 9,5l-3 1c-1,-2 -3,-3 -6,-3 -1,0 -2,0 -3,0 -1,1 -1,2 -1,3 0,1 1,2 3,3l4 1c4,0 6,2 6,6 0,2 0,3 -2,5 -2,1 -4,1 -6,1 -5,0 -8,-2 -10,-6zm35 -2l3 1c0,2 -1,4 -2,5 -2,2 -4,2 -6,2 -3,0 -5,-1 -6,-3 -2,-2 -3,-5 -3,-8 0,-3 1,-6 3,-8 1,-2 4,-3 6,-3 3,0 4,1 6,2 1,1 2,3 2,5l-3 1c0,-4 -2,-5 -5,-5 -1,0 -3,0 -4,2 -1,1 -1,4 -1,6 0,3 0,5 1,6 1,2 3,3 4,3 3,0 5,-2 5,-6zm24 8l-3 0 0 -13c0,-2 0,-3 0,-4 0,0 -1,-1 -1,-2 -1,0 -2,0 -3,0 -2,0 -3,0 -4,2 -1,1 -2,3 -2,5l0 12 -3 0 0 -29 3 0 0 11c2,-3 4,-4 7,-4 1,0 2,0 3,1 1,0 2,1 2,2 1,0 1,1 1,2 0,1 0,2 0,4l0 13zm23 0l-2 0 0 -4c-2,3 -4,4 -7,4 -2,0 -4,0 -5,-2 -1,-1 -2,-3 -2,-6l0 -14 3 0 0 14c0,2 1,4 1,4 1,1 2,2 3,2 1,0 2,-1 3,-1 1,-1 2,-2 2,-3 1,-1 1,-2 1,-4l0 -12 3 0 0 22zm10 0l-3 0 0 -29 3 0 0 29zm21 -7l3 1c-1,2 -2,3 -4,5 -1,1 -3,1 -5,1 -3,0 -5,-1 -7,-3 -2,-2 -3,-4 -3,-8 0,-3 1,-6 3,-8 2,-2 4,-3 7,-3 3,0 5,1 6,3 2,2 3,5 3,8l-15 0c0,4 0,6 2,7 1,1 3,2 4,2 3,0 5,-2 6,-5zm-1 -6c0,-1 0,-2 0,-3 0,-1 -1,-2 -2,-3 -1,0 -2,-1 -3,-1 -2,0 -3,1 -4,2 -1,1 -2,3 -2,5l11 0zm-317 62l0 -29 12 0c3,0 5,1 6,2 1,2 2,3 2,5 0,3 -2,5 -5,7 2,0 3,1 4,2 1,2 2,3 2,5 0,2 -1,4 -2,6 -2,1 -4,2 -7,2l-12 0zm4 -17l6 0c3,0 4,0 5,-1 1,-1 1,-2 1,-4 0,-1 0,-2 -1,-3 -1,-1 -2,-1 -4,-1l-7 0 0 9zm0 14l7 0c2,0 4,-1 5,-2 1,-1 1,-2 1,-3 0,-1 0,-2 0,-3 -1,-1 -1,-2 -2,-2 -1,-1 -2,-1 -4,-1l-7 0 0 11zm38 3l-3 0c0,-1 0,-2 0,-4 -2,3 -4,4 -8,4 -2,0 -4,0 -5,-1 -1,-2 -2,-3 -2,-5 0,-2 1,-4 3,-5 2,-2 5,-2 9,-2 1,0 1,0 3,0 0,-2 0,-3 -1,-4 0,-1 0,-1 -1,-2 -1,0 -2,0 -4,0 -3,0 -5,1 -5,3l-3 0c0,-4 3,-6 9,-6 3,0 5,1 6,2 1,1 2,3 2,7l0 9c0,1 0,3 0,4zm-3 -11c-2,0 -3,0 -3,0 -3,0 -5,0 -6,1 -2,1 -2,2 -2,4 0,1 0,2 1,3 0,1 2,1 3,1 2,0 4,-1 5,-2 1,-2 2,-3 2,-5 0,-1 0,-1 0,-2zm26 -18l0 29 -3 0 0 -4c-2,3 -4,4 -7,4 -2,0 -4,-1 -6,-3 -1,-2 -2,-4 -2,-8 0,-3 1,-6 2,-8 2,-2 4,-3 6,-3 3,0 5,1 7,3l0 -10 3 0zm-3 16c0,-2 -1,-4 -2,-5 -1,-1 -3,-1 -4,-1 -2,0 -3,0 -4,2 -1,1 -2,3 -2,6 0,3 1,5 2,6 1,2 2,3 4,3 1,0 3,-1 4,-2 1,-2 2,-3 2,-5l0 -4zm23 6l3 1c0,2 -1,3 -3,5 -2,1 -3,1 -6,1 -2,0 -5,-1 -7,-3 -1,-2 -2,-4 -2,-8 0,-3 1,-6 3,-8 1,-2 4,-3 6,-3 3,0 5,1 7,3 2,2 3,5 3,8l-16 0c0,4 1,6 2,7 2,1 3,2 5,2 2,0 4,-2 5,-5zm0 -6c0,-1 0,-2 -1,-3 0,-1 0,-2 -1,-3 -1,0 -2,-1 -3,-1 -2,0 -3,1 -5,2 -1,1 -1,3 -1,5l11 0zm25 13l-3 0 0 -14c0,-2 0,-3 -1,-4 -1,-1 -2,-1 -3,-1 -2,0 -3,0 -4,2 -2,1 -2,3 -2,5l0 12 -3 0 0 -21 3 0 0 3c1,-3 4,-4 6,-4 2,0 3,0 4,1 1,1 2,2 3,3 0,1 0,3 0,6l0 12zm13 -12l0 2 -9 0 0 -2 9 0zm35 -17l-7 29 -3 0 -6 -23 -6 23 -4 0 -7 -29 4 0 5 23 6 -23 3 0 7 23 5 -23 3 0zm21 29l-3 0 0 -4c-2,3 -4,4 -7,4 -2,0 -4,0 -5,-2 -1,-1 -2,-3 -2,-6l0 -13 4 0 0 13c0,2 0,4 1,5 1,0 2,1 3,1 1,0 2,-1 3,-1 0,-1 1,-2 2,-3 0,-1 1,-2 1,-3l0 -12 3 0 0 21zm-3 -28c0,1 0,1 -1,2 0,0 -1,0 -1,0 -1,0 -1,0 -2,0 0,-1 0,-1 0,-2 0,0 0,-1 0,-1 1,-1 1,-1 2,-1 0,0 1,0 1,1 1,0 1,1 1,1zm-7 0c0,1 0,1 0,2 -1,0 -1,0 -2,0 0,0 -1,0 -1,0 -1,-1 -1,-1 -1,-2 0,0 0,-1 1,-1 0,-1 1,-1 1,-1 1,0 1,0 2,1 0,0 0,1 0,1zm20 28l-4 0 0 -21 3 0 0 4c1,-2 2,-3 3,-4 1,-1 2,-1 3,-1 1,0 1,0 2,0l0 3 -1 0c-2,0 -3,1 -4,2 -2,2 -2,3 -2,6l0 11zm21 -2l0 2c-1,0 -2,0 -3,0 -4,0 -6,-2 -6,-6l0 -13 -3 0 0 -2 3 0 0 -6 3 0 0 6 5 0 0 2 -5 0 0 14c0,2 2,3 4,3 1,0 1,0 2,0zm13 0l0 2c-1,0 -2,0 -2,0 -5,0 -7,-2 -7,-6l0 -13 -3 0 0 -2 3 0 1 -6 3 0 0 6 4 0 0 2 -4 0 0 14c0,2 1,3 3,3 1,0 2,0 2,0zm17 -5l3 1c0,2 -1,3 -3,5 -2,1 -3,1 -6,1 -3,0 -5,-1 -7,-3 -1,-2 -2,-4 -2,-8 0,-3 1,-6 2,-8 2,-2 5,-3 7,-3 3,0 5,1 7,3 2,2 3,5 3,8l-16 0c0,4 1,6 2,7 2,1 3,2 5,2 2,0 4,-2 5,-5zm0 -6c0,-1 0,-2 -1,-3 0,-1 -1,-2 -1,-3 -1,0 -2,-1 -3,-1 -2,0 -3,1 -5,2 -1,1 -1,3 -2,5l12 0zm37 13l-4 0 0 -13c0,-2 0,-3 0,-3 0,-1 0,-2 -1,-2 -1,-1 -2,-1 -3,-1 -1,0 -2,0 -3,2 -1,1 -2,2 -2,5l0 12 -3 0 0 -14c0,-2 -1,-3 -1,-4 -1,-1 -2,-1 -3,-1 -2,0 -3,0 -4,1 -1,2 -1,3 -1,5l0 13 -3 0 0 -21 2 0 0 4c2,-4 4,-5 7,-5 1,0 3,0 4,1 1,1 1,3 2,4 1,-3 3,-5 6,-5 2,0 3,0 4,1 1,1 2,2 2,3 1,1 1,3 1,5l0 13zm8 0l-2 0 0 -29 3 0 0 11c2,-3 4,-4 7,-4 2,0 4,1 6,3 1,2 2,5 2,8 0,3 -1,6 -2,8 -2,2 -4,3 -6,3 -3,0 -6,-1 -7,-4l-1 4zm1 -9c1,3 1,4 2,5 2,1 3,2 4,2 2,0 3,-1 4,-2 1,-2 2,-4 2,-7 0,-2 -1,-4 -2,-6 -1,-2 -2,-2 -4,-2 -1,0 -2,0 -4,1 -1,1 -1,3 -2,5l0 4zm34 2l3 1c-1,2 -2,3 -3,5 -2,1 -4,1 -6,1 -3,0 -5,-1 -7,-3 -2,-2 -3,-4 -3,-8 0,-3 1,-6 3,-8 2,-2 4,-3 7,-3 3,0 5,1 7,3 1,2 2,5 2,8l-15 0c0,4 1,6 2,7 1,1 3,2 4,2 3,0 5,-2 6,-5zm0 -6c0,-1 0,-2 -1,-3 0,-1 -1,-2 -2,-3 0,0 -2,-1 -3,-1 -1,0 -3,1 -4,2 -1,1 -2,3 -2,5l12 0zm12 13l-4 0 0 -21 3 0 0 4c1,-2 2,-3 3,-4 1,-1 2,-1 3,-1 1,0 1,0 2,0l0 3 -1 0c-2,0 -3,1 -5,2 -1,2 -1,3 -1,6l0 11zm27 -25l0 3c-1,0 -2,0 -3,0 0,1 0,1 -1,2 2,2 2,4 2,5 0,2 0,4 -2,5 -1,2 -3,3 -6,3 0,0 -1,-1 -1,-1 -1,0 -1,0 -1,0 -1,0 -1,0 -2,1 0,0 -1,1 -1,1 0,1 1,2 2,2 0,0 2,0 5,0 2,0 4,1 5,1 1,0 2,1 3,2 1,0 1,2 1,3 0,4 -3,6 -10,6 -4,0 -6,-1 -8,-2 -1,-1 -2,-2 -2,-4 0,-2 1,-3 3,-4 -1,-1 -2,-2 -2,-3 0,-2 1,-3 3,-4 -2,-2 -3,-4 -3,-6 0,-2 1,-4 3,-5 1,-1 3,-2 5,-2 2,0 3,0 5,1 0,-2 0,-3 1,-3 1,-1 2,-1 4,-1 0,0 0,0 0,0zm-10 15c2,0 3,0 4,-1 1,-1 1,-2 1,-4 0,-1 0,-2 -1,-3 -1,-1 -2,-1 -3,-1 -2,0 -3,0 -4,1 -1,1 -1,2 -1,3 0,2 0,3 1,4 1,1 2,1 3,1zm-3 9c-2,1 -3,2 -3,3 0,1 1,2 2,2 1,1 3,1 5,1 2,0 3,0 5,0 1,-1 2,-2 2,-3 0,-1 0,-1 -1,-2 0,0 -1,0 -1,0 -1,-1 -2,-1 -4,-1 -3,0 -4,0 -5,0z"/>
  <path class="fil2" d="M176 207l0 -22 0 -92 60 0 0 54 -60 60z"/>
  <path class="fil0" d="M167 207l-60 60 0 -114 60 -60 0 114z"/>
  <path class="fil2" d="M167 93l-60 60 0 54 60 0 0 -114z"/>
  <path class="fil1" d="M423 149c0,10 -1,19 -3,27 -3,7 -6,13 -11,18 -4,5 -10,8 -16,10 -7,3 -14,4 -23,4l-24 0c-2,0 -3,-1 -5,-2 -1,-1 -1,-3 -1,-6l0 -99c0,-3 0,-5 1,-6 2,-1 3,-2 5,-2l26 0c9,0 16,2 22,4 7,2 12,6 16,11 5,4 8,10 10,17 2,7 3,15 3,24zm-21 1c0,-6 0,-11 -1,-15 -2,-5 -3,-9 -6,-13 -2,-3 -5,-6 -9,-8 -4,-1 -9,-2 -16,-2l-10 0 0 77 11 0c5,0 10,-1 14,-2 4,-2 7,-4 10,-8 2,-3 4,-7 5,-12 2,-5 2,-11 2,-17z"/>
  <path class="fil1" d="M519 204c0,1 0,2 0,2 -1,1 -1,1 -2,1 -1,1 -2,1 -3,1 -2,0 -3,0 -5,0 -2,0 -4,0 -5,0 -2,0 -3,0 -3,-1 -1,0 -2,0 -2,-1 0,0 0,-1 0,-2l0 -46 -38 0 0 46c0,1 0,2 -1,2 0,1 -1,1 -1,1 -1,1 -2,1 -3,1 -2,0 -3,0 -5,0 -2,0 -4,0 -5,0 -2,0 -3,0 -4,-1 0,0 -1,0 -1,-1 -1,0 -1,-1 -1,-2l0 -107c0,-1 0,-2 1,-2 0,0 1,-1 1,-1 1,0 2,-1 4,-1 1,0 3,0 5,0 2,0 3,0 5,0 1,0 2,1 3,1 0,0 1,1 1,1 1,0 1,1 1,2l0 42 38 0 0 -42c0,-1 0,-2 0,-2 0,0 1,-1 2,-1 0,0 1,-1 3,-1 1,0 3,0 5,0 2,0 3,0 5,0 1,0 2,1 3,1 1,0 1,1 2,1 0,0 0,1 0,2l0 107z"/>
  <path class="fil0" d="M610 175c0,3 0,7 -1,10 -1,3 -2,6 -4,8 -1,2 -3,5 -5,6 -2,2 -4,4 -7,5 -2,1 -5,2 -8,3 -3,0 -6,1 -10,1l-27 0c-1,0 -2,-1 -3,-2 -1,-1 -2,-2 -2,-5l0 -101c0,-3 1,-4 2,-5 1,-1 2,-2 3,-2l23 0c6,0 11,1 15,2 4,2 7,4 10,6 2,2 4,6 6,9 1,4 2,8 2,12 0,3 -1,6 -1,8 -1,3 -2,5 -3,7 -1,2 -2,4 -4,5 -2,2 -4,3 -6,5 3,0 5,1 8,3 2,1 4,3 6,6 2,2 3,5 4,8 1,3 2,7 2,11zm-20 -51c0,-3 -1,-6 -1,-8 -1,-2 -2,-4 -3,-5 -2,-2 -4,-3 -6,-4 -3,-1 -6,-1 -9,-1l-14 0 0 37 15 0c3,0 6,-1 8,-2 3,-1 4,-2 6,-4 1,-2 2,-4 3,-6 0,-2 1,-5 1,-7zm6 52c0,-4 -1,-7 -2,-9 -1,-3 -2,-5 -4,-7 -2,-2 -4,-3 -7,-4 -3,-1 -6,-1 -10,-1l-16 0 0 40 19 0c3,0 6,0 8,-1 2,-1 4,-2 6,-4 2,-1 3,-3 4,-6 1,-2 2,-5 2,-8z"/>
  <path class="fil0" d="M725 204c0,1 -1,2 -1,2 0,1 -1,1 -2,1 0,1 -1,1 -2,1 -1,0 -3,0 -4,0 -2,0 -3,0 -4,0 -1,0 -2,0 -3,-1 -1,0 -1,0 -2,-1 0,0 0,-1 -1,-2l-21 -86 0 0 -19 86c-1,1 -1,2 -1,2 -1,1 -1,1 -2,1 0,1 -1,1 -2,1 -1,0 -3,0 -4,0 -2,0 -4,0 -5,0 -1,0 -2,0 -3,-1 0,0 -1,0 -1,-1 -1,0 -1,-1 -1,-2l-27 -105c0,-2 0,-3 0,-3 0,-1 0,-2 0,-2 1,-1 2,-1 3,-1 1,0 2,0 4,0 1,0 2,0 3,0 1,0 2,0 3,0 0,1 0,1 1,1 0,1 0,1 0,2l23 96 0 0 21 -96c0,0 1,-1 1,-1 0,-1 0,-1 1,-1 0,-1 1,-1 2,-1 1,0 2,0 4,0 1,0 3,0 3,0 1,0 2,0 2,1 1,0 1,0 2,1 0,0 0,1 0,1l23 96 0 0 23 -96c0,0 0,-1 0,-1 0,-1 1,-1 1,-1 1,-1 1,-1 2,-1 1,0 2,0 4,0 1,0 3,0 4,0 1,0 1,1 2,1 0,0 0,1 0,2 0,0 0,2 0,3l-27 105z"/>
 </g>
</svg>
